<svg width="100" height="100" viewBox="0 0 100 100" fill="none" xmlns="http://www.w3.org/2000/svg">
<path d="M26.6657 22.4545H38.0649V60.4872C38.0649 64.0028 37.2747 67.0568 35.6945 69.6491C34.132 72.2415 31.9569 74.239 29.1693 75.6417C26.3816 77.0444 23.1412 77.7457 19.448 77.7457C16.1632 77.7457 13.1803 77.1687 10.4992 76.0146C7.8358 74.8427 5.72288 73.0671 4.16038 70.6879C2.59788 68.2908 1.82551 65.2812 1.84326 61.6591H13.3223C13.3578 63.0973 13.6508 64.3313 14.2012 65.3612C14.7694 66.3732 15.5418 67.1545 16.5183 67.7049C17.5127 68.2376 18.6845 68.5039 20.034 68.5039C21.4544 68.5039 22.6529 68.2021 23.6295 67.5984C24.6238 66.9769 25.3784 66.0714 25.8933 64.8817C26.4082 63.6921 26.6657 62.2273 26.6657 60.4872V22.4545ZM83.768 40.0859C83.3951 38.7898 82.8713 37.6445 82.1966 36.6502C81.5219 35.6381 80.6962 34.7859 79.7197 34.0934C78.7609 33.3832 77.66 32.8416 76.4171 32.4688C75.192 32.0959 73.8337 31.9094 72.3422 31.9094C69.5546 31.9094 67.1043 32.6019 64.9913 33.9869C62.8962 35.3718 61.2627 37.3871 60.0908 40.0327C58.9189 42.6605 58.333 45.8743 58.333 49.674C58.333 53.4737 58.91 56.7053 60.0641 59.3686C61.2183 62.032 62.8518 64.065 64.9647 65.4677C67.0776 66.8526 69.5723 67.5451 72.4487 67.5451C75.0588 67.5451 77.2872 67.0835 79.1337 66.1602C80.9981 65.2191 82.4185 63.8963 83.3951 62.1918C84.3894 60.4872 84.8866 58.4719 84.8866 56.146L87.2303 56.4922H73.1678V47.8097H95.9928V54.6811C95.9928 59.4751 94.9807 63.5945 92.9565 67.0391C90.9324 70.4659 88.1448 73.1115 84.5936 74.9759C81.0425 76.8224 76.9764 77.7457 72.3955 77.7457C67.2818 77.7457 62.7896 76.6183 58.9189 74.3633C55.0482 72.0906 52.0297 68.8679 49.8635 64.6953C47.7151 60.505 46.6408 55.5334 46.6408 49.7805C46.6408 45.3594 47.2801 41.4176 48.5585 37.9553C49.8546 34.4751 51.6657 31.5277 53.9917 29.1129C56.3177 26.6982 59.0254 24.8604 62.1149 23.5998C65.2044 22.3391 68.5514 21.7088 72.1558 21.7088C75.2453 21.7088 78.1217 22.1616 80.785 23.0671C83.4484 23.9549 85.8099 25.2156 87.8695 26.8491C89.947 28.4826 91.6426 30.4268 92.9565 32.6818C94.2705 34.919 95.1139 37.3871 95.4867 40.0859H83.768Z" fill="black"/>
</svg>
