<?xml version="1.0" encoding="UTF-8"?>
<svg width="16px" height="16px" viewBox="0 0 16 16" version="1.1" xmlns="http://www.w3.org/2000/svg" xmlns:xlink="http://www.w3.org/1999/xlink">
    <title>favicons/touch-bar-icon</title>
    <g id="favicons/touch-bar-icon" stroke="none" stroke-width="1" fill="none" fill-rule="evenodd">
        <path d="M8.29118497,15 C9.52480732,15 10.6065751,14.7536427 11.5364884,14.260928 C12.4664017,13.7682134 13.1927987,13.0385564 13.7156792,12.071957 C14.2385597,11.1053575 14.5,9.95987447 14.5,8.63550773 L14.5,8.63550773 L14.5,7.45864156 L8.46026012,7.45864156 L8.46026012,9.92535306 L11.6726879,9.92535306 C11.6100674,10.7538668 11.2766137,11.394082 10.6723266,11.8459987 C10.0680395,12.2979153 9.27432563,12.5238736 8.29118497,12.5238736 C7.08261079,12.5238736 6.10729769,12.0986326 5.36524566,11.2481506 C4.62319364,10.3976687 4.25216763,9.30710603 4.25216763,7.97646268 C4.25216763,6.66464918 4.61536609,5.58507061 5.34176301,4.73772697 C6.06815992,3.89038332 7.0105973,3.4667115 8.16907514,3.4667115 C9.87861272,3.4667115 10.9901252,4.17910782 11.5036127,5.60390047 L11.5036127,5.60390047 L14.4060694,5.60390047 C14.0366089,4.18538444 13.3289981,3.06343869 12.283237,2.23806321 C11.2374759,1.41268774 9.88800578,1 8.23482659,1 C6.93858382,1 5.77697495,1.29970859 4.75,1.89912576 C3.72302505,2.49854293 2.92461464,3.32862587 2.35476879,4.38937458 C1.78492293,5.45012329 1.5,6.64581932 1.5,7.97646268 C1.5,9.31338265 1.78492293,10.5153553 2.35476879,11.5823806 C2.92461464,12.649406 3.72772158,13.4857655 4.7640896,14.0914593 C5.80045761,14.6971531 6.97615607,15 8.29118497,15 Z" id="G" fill="#FFFFFF" fill-rule="nonzero"></path>
    </g>
</svg>